<?xml version="1.0" encoding="utf-8"?>
<!-- Generator: Adobe Illustrator 19.0.0, SVG Export Plug-In . SVG Version: 6.00 Build 0)  -->
<svg version="1.1" id="Layer_1" xmlns="http://www.w3.org/2000/svg" xmlns:xlink="http://www.w3.org/1999/xlink" x="0px" y="0px"
	 viewBox="-293 385 24 24" style="enable-background:new -293 385 24 24;" xml:space="preserve">
<style type="text/css">
	.st0{fill:#FFFFFF;}
</style>
<path class="st0" d="M-281,386.6c-5.8,0-10.4,4.7-10.4,10.4s4.7,10.4,10.4,10.4s10.4-4.7,10.4-10.4S-275.2,386.6-281,386.6z
	 M-281,405.3c-4.6,0-8.3-3.7-8.3-8.3s3.7-8.3,8.3-8.3s8.3,3.7,8.3,8.3C-272.7,401.6-276.4,405.3-281,405.3z M-281,390.4
	c-3.6,0-6.6,3-6.6,6.6c0,3.6,3,6.6,6.6,6.6s6.6-3,6.6-6.6C-274.4,393.4-277.4,390.4-281,390.4z M-277.9,399.2
	c-0.2,0.2-0.4,0.4-0.7,0.4c-0.2,0-0.4-0.1-0.5-0.2l-2.4-1.7c-0.2-0.2-0.4-0.4-0.4-0.7v-4.5c0-0.5,0.4-0.9,0.9-0.9s0.9,0.4,0.9,0.9
	v4.1l2.1,1.5C-277.7,398.3-277.6,398.9-277.9,399.2z"/>
</svg>
