<?xml version="1.0" encoding="utf-8"?>
<!-- Generator: Adobe Illustrator 19.0.0, SVG Export Plug-In . SVG Version: 6.00 Build 0)  -->
<svg version="1.1" id="Layer_1" xmlns="http://www.w3.org/2000/svg" xmlns:xlink="http://www.w3.org/1999/xlink" x="0px" y="0px"
	 viewBox="0 0 24 24" style="enable-background:new 0 0 24 24;" xml:space="preserve">
<style type="text/css">
	.st0{fill:#FFFFFF;}
</style>
<path class="st0" d="M21.8,12.5L11.5,2.2c-0.3-0.3-0.8-0.3-1.1,0C10,2.5,10,3,10.3,3.3L10.7,4L3,18.2v0l-0.1-0.3
	c-0.3-0.3-0.7-0.3-1,0c-0.3,0.3-0.3,0.8,0.1,1.1L4.8,22c0.3,0.3,0.8,0.3,1.2,0c0.3-0.3,0.3-0.8,0-1.1l-0.3-0.3l0,0l1.8-0.9
	c0.6,1,1.6,1.6,2.7,1.6c0.5,0,0.9-0.1,1.4-0.3c1.6-0.8,2.2-2.6,1.5-4.2l7-3.7l0.6,0.6c0.3,0.3,0.8,0.3,1.1,0
	C22.1,13.3,22.1,12.8,21.8,12.5z M10.9,19.4c-0.7,0.3-1.5,0.1-1.9-0.6l2.7-1.4C11.9,18.2,11.6,19,10.9,19.4z"/>
</svg>
