<?xml version="1.0" encoding="utf-8"?>
<!-- Generator: Adobe Illustrator 19.0.0, SVG Export Plug-In . SVG Version: 6.00 Build 0)  -->
<svg version="1.1" id="Layer_1" xmlns="http://www.w3.org/2000/svg" xmlns:xlink="http://www.w3.org/1999/xlink" x="0px" y="0px"
	 viewBox="-293 385 24 24" style="enable-background:new -293 385 24 24;" xml:space="preserve">
<style type="text/css">
	.st0{fill:#FFFFFF;}
</style>
<path class="st0" d="M-277.6,398.5c0.3-0.6,0.4-1.2,0.4-1.9c0-2.3-1.9-4.2-4.2-4.2s-4.2,1.9-4.2,4.2c0,2.3,1.9,4.2,4.2,4.2
	c0.7,0,1.3-0.2,1.9-0.4l0.6,1.5c-0.7,0.3-1.6,0.5-2.4,0.5c-3.2,0-5.8-2.6-5.8-5.8c0-3.2,2.6-5.8,5.8-5.8s5.8,2.6,5.8,5.8
	c0,0.9-0.2,1.7-0.5,2.4L-277.6,398.5z M-283.3,396.7c0,1.1,0.9,1.9,1.9,1.9c1.1,0,1.9-0.9,1.9-1.9c0-1.1-0.9-1.9-1.9-1.9
	C-282.4,394.7-283.3,395.6-283.3,396.7z M-281.3,404.8c-4.5,0-8.1-3.7-8.1-8.1c0-4.5,3.7-8.1,8.1-8.1c4.5,0,8.1,3.7,8.1,8.1
	c0,1.2-0.2,2.3-0.7,3.3l1.5,0.6c0.5-1.2,0.8-2.5,0.8-3.8c0-5.4-4.3-9.7-9.7-9.7c-5.4,0-9.7,4.3-9.7,9.7c0,5.4,4.3,9.7,9.7,9.7
	c1.4,0,2.7-0.3,3.8-0.8l-0.6-1.5C-279.1,404.5-280.2,404.8-281.3,404.8z M-271,405.7l-2.8-2.8l2.1-1.2l-7.5-2.9l2.9,7.5l1.2-2.1
	l2.8,2.8L-271,405.7z"/>
</svg>
