<?xml version="1.0" encoding="utf-8"?>
<!-- Generator: Adobe Illustrator 19.0.0, SVG Export Plug-In . SVG Version: 6.00 Build 0)  -->
<svg version="1.1" id="Layer_1" xmlns="http://www.w3.org/2000/svg" xmlns:xlink="http://www.w3.org/1999/xlink" x="0px" y="0px"
	 viewBox="-293 385 24 24" style="enable-background:new -293 385 24 24;" xml:space="preserve">
<style type="text/css">
	.st0{fill:#FFFFFF;}
</style>
<path class="st0" d="M-271.8,393.2l-5.4-5.4c0,0-0.1-0.1-0.1-0.1h-7.3c0,0-0.1,0-0.1,0.1l-5.4,5.4c0,0-0.1,0.1-0.1,0.1v7.3
	c0,0,0,0.1,0.1,0.1l5.4,5.4c0,0,0.1,0.1,0.1,0.1h7.3c0,0,0.1,0,0.1-0.1l5.4-5.4c0,0,0.1-0.1,0.1-0.1v-7.3
	C-271.8,393.3-271.8,393.3-271.8,393.2z M-281,402.5c-0.6,0-1.1-0.5-1.1-1.1c0-0.6,0.5-1.1,1.1-1.1s1.1,0.5,1.1,1.1
	C-279.9,402.1-280.4,402.5-281,402.5z M-280.1,398.9h-1.7l-0.6-6.1c0-0.8,0.6-1.4,1.4-1.4s1.4,0.6,1.4,1.4L-280.1,398.9z"/>
</svg>
