<?xml version="1.0" encoding="utf-8"?>
<!-- Generator: Adobe Illustrator 19.0.0, SVG Export Plug-In . SVG Version: 6.00 Build 0)  -->
<svg version="1.1" id="Layer_1" xmlns="http://www.w3.org/2000/svg" xmlns:xlink="http://www.w3.org/1999/xlink" x="0px" y="0px"
	 viewBox="-293 385 24 24" style="enable-background:new -293 385 24 24;" xml:space="preserve">
<style type="text/css">
	.st0{fill:#FFFFFF;}
</style>
<g>
	<g>
		<path class="st0" d="M-281,394.1c0,1.7,0,3.4,0,5.1c0,0.9,0.4,1.6,1.4,1.9v6.3h4.2v-6.3c0.8-0.2,1.2-0.8,1.3-1.5
			c0-0.2,0.1-0.4,0.1-0.6c0-1.6,0-3.1,0-4.7c0-0.1,0-0.1,0-0.2L-281,394.1L-281,394.1z"/>
	</g>
	<g>
		<path class="st0" d="M-277.5,393.4c1.5,0,2.8-1.3,2.8-2.8s-1.3-2.8-2.8-2.8s-2.8,1.3-2.8,2.8S-279,393.4-277.5,393.4"/>
	</g>
</g>
<path class="st0" d="M-287.2,386.6c-2.7,0-4.8,2.2-4.8,4.8c0,2.7,2.2,4.8,4.8,4.8c2.7,0,4.8-2.2,4.8-4.8
	C-282.3,388.7-284.5,386.6-287.2,386.6z M-284.4,392.2h-1.9h-1.7h-1.9c-0.5,0-0.8-0.4-0.8-0.8c0-0.5,0.4-0.8,0.8-0.8h1.9h1.7h1.9
	c0.5,0,0.8,0.4,0.8,0.8C-283.6,391.9-284,392.2-284.4,392.2z"/>
</svg>
