<?xml version="1.0" encoding="utf-8"?>
<!-- Generator: Adobe Illustrator 19.0.0, SVG Export Plug-In . SVG Version: 6.00 Build 0)  -->
<svg version="1.1" id="Layer_1" xmlns="http://www.w3.org/2000/svg" xmlns:xlink="http://www.w3.org/1999/xlink" x="0px" y="0px"
	 viewBox="-293 385 24 24" style="enable-background:new -293 385 24 24;" xml:space="preserve">
<style type="text/css">
	.st0{fill:#FFFFFF;}
</style>
<path id="Layer_1_1_" class="st0" d="M-271.8,391.4h-2.5v2.3c0,0.8-0.7,1.4-1.5,1.4h-0.6c-0.8,0-1.5-0.6-1.5-1.4v-2.3h-6.2v2.3
	c0,0.8-0.7,1.4-1.5,1.4h-0.6c-0.8,0-1.5-0.6-1.5-1.4v-2.3h-2.5v1.4v13.4h18.5v-13.4V391.4z M-287.7,397.4h3.6v2.4h-3.6V397.4z
	 M-284.1,403.5h-3.7v-2.4h3.7V403.5z M-282.7,397.4h3.6v2.4h-3.6V397.4z M-279,403.5h-3.7v-2.4h3.7V403.5z M-277.9,397.4h3.6v2.4
	h-3.6V397.4z M-274.1,403.5h-3.7v-2.4h3.7V403.5z M-275.1,392.9c0,0.6-0.4,1.2-1,1.2l0,0c-0.5,0-1-0.5-1-1.2v-4c0-0.6,0.4-1.2,1-1.2
	l0,0c0.5,0,1,0.5,1,1.2V392.9z M-284.9,393c0,0.6-0.4,1.2-1,1.2l0,0c-0.5,0-1-0.5-1-1.2v-4c0-0.6,0.4-1.2,1-1.2l0,0
	c0.5,0,1,0.5,1,1.2C-284.9,388.9-284.9,393-284.9,393z"/>
</svg>
