<?xml version="1.0" encoding="utf-8"?>
<!-- Generator: Adobe Illustrator 19.0.0, SVG Export Plug-In . SVG Version: 6.00 Build 0)  -->
<svg version="1.1" id="Layer_1" xmlns="http://www.w3.org/2000/svg" xmlns:xlink="http://www.w3.org/1999/xlink" x="0px" y="0px"
	 viewBox="-293 385 24 24" style="enable-background:new -293 385 24 24;" xml:space="preserve">
<style type="text/css">
	.st0{fill:#FFFFFF;}
</style>
<path class="st0" d="M-273.7,387.9h-14.6c-1,0-1.8,0.8-1.8,1.8v12.3c0,1,0.8,1.8,1.8,1.8h5.6v0.9h-1.6c-0.9,0-1.7,0.7-1.9,1.5h10.3
	c-0.2-0.9-1-1.5-1.9-1.5h-1.6v-0.9h5.6c1,0,1.8-0.8,1.8-1.8v-12.3C-271.9,388.7-272.7,387.9-273.7,387.9z M-273.4,401.9
	c0,0.2-0.1,0.3-0.3,0.3h-14.6c-0.2,0-0.3-0.1-0.3-0.3v-12.3c0-0.2,0.1-0.3,0.3-0.3h14.6c0.2,0,0.3,0.1,0.3,0.3V401.9z M-287.4,390.7
	h12.9v3.2h-12.9V390.7z M-278.9,394.9h4.4v6.2h-4.4C-278.9,401.1-278.9,394.9-278.9,394.9z M-287.4,394.9h7.2v6.2h-7.2
	C-287.4,401.1-287.4,394.9-287.4,394.9z"/>
</svg>
