<?xml version="1.0" encoding="utf-8"?>
<!-- Generator: Adobe Illustrator 19.0.0, SVG Export Plug-In . SVG Version: 6.00 Build 0)  -->
<svg version="1.1" id="Layer_1" xmlns="http://www.w3.org/2000/svg" xmlns:xlink="http://www.w3.org/1999/xlink" x="0px" y="0px"
	 viewBox="-293 385 24 24" style="enable-background:new -293 385 24 24;" xml:space="preserve">
<style type="text/css">
	.st0{fill:#9E9E9E;}
</style>
<g>
	<g>
		<path class="st0" d="M-289.2,393.5c0,1.7,0,3.4,0,5.1c0,0.9,0.4,1.6,1.4,1.9v6.3h4.2v-6.3c0.8-0.2,1.2-0.8,1.3-1.5
			c0-0.2,0.1-0.4,0.1-0.6c0-1.6,0-3.1,0-4.7c0-0.1,0-0.1,0-0.2L-289.2,393.5L-289.2,393.5z"/>
	</g>
	<g>
		<path class="st0" d="M-285.7,392.8c1.5,0,2.8-1.3,2.8-2.8s-1.3-2.8-2.8-2.8s-2.8,1.3-2.8,2.8S-287.2,392.8-285.7,392.8"/>
	</g>
</g>
<g>
	<g>
		<path class="st0" d="M-279.8,393.5c0,1.7,0,3.4,0,5.1c0,0.9,0.4,1.6,1.4,1.9v6.3h4.2v-6.3c0.8-0.2,1.2-0.8,1.3-1.5
			c0-0.2,0.1-0.4,0.1-0.6c0-1.6,0-3.1,0-4.7c0-0.1,0-0.1,0-0.2L-279.8,393.5L-279.8,393.5z"/>
	</g>
	<g>
		<path class="st0" d="M-276.3,392.8c1.5,0,2.8-1.3,2.8-2.8s-1.3-2.8-2.8-2.8s-2.8,1.3-2.8,2.8
			C-279.1,391.5-277.8,392.8-276.3,392.8"/>
	</g>
</g>
</svg>
