<?xml version="1.0" encoding="utf-8"?>
<!-- Generator: Adobe Illustrator 19.1.0, SVG Export Plug-In . SVG Version: 6.00 Build 0)  -->
<svg version="1.1" id="Layer_1" xmlns="http://www.w3.org/2000/svg" xmlns:xlink="http://www.w3.org/1999/xlink" x="0px" y="0px"
	 viewBox="-293 385 24 24" style="enable-background:new -293 385 24 24;" xml:space="preserve">
<style type="text/css">
	.st0{fill:#FFFFFF;}
</style>
<path class="st0" d="M-272.2,405.7L-272.2,405.7c-0.7,0.7-1.7,0.7-2.3,0l-4.5-4.9l1.9-1.9l4.9,4.5
	C-271.6,404.1-271.6,405.1-272.2,405.7z M-278,398.1l0.4,0.4l-1.9,1.9l-0.4-0.4c-1.1,0.7-2.3,1.1-3.7,1.1c-1.8,0-3.5-0.7-4.7-2
	c-1.3-1.3-2-2.9-2-4.7s0.7-3.5,2-4.7c1.3-1.3,2.9-2,4.7-2c1.8,0,3.5,0.7,4.7,2c1.3,1.3,2,2.9,2,4.7
	C-276.9,395.8-277.3,397-278,398.1z M-279.7,390.6c-2.1-2.1-5.6-2.1-7.7,0s-2.1,5.6,0,7.7c2.1,2.1,5.6,2.1,7.7,0
	S-277.6,392.7-279.7,390.6z M-281.8,396.5c0.3-0.4,0.5-0.7,0.5-1.2c0-0.3-0.1-0.6-0.3-0.9c-0.2-0.3-0.4-0.4-0.7-0.6
	c-0.3-0.1-0.7-0.2-1.2-0.3c-0.3-0.1-0.5-0.1-0.6-0.2c-0.1-0.1-0.1-0.2-0.1-0.3c0-0.3,0.3-0.5,0.8-0.5c0.5,0,0.8,0.2,0.9,0.6l1.1-0.4
	c-0.3-0.8-0.9-1.2-1.7-1.3v-0.7h-0.3h-0.3v0.7c-0.5,0.1-0.9,0.2-1.2,0.6c-0.3,0.3-0.4,0.7-0.4,1.1c0,0.4,0.1,0.7,0.4,1
	c0.2,0.3,0.8,0.5,1.6,0.7c0.4,0.1,0.6,0.2,0.8,0.2c0.1,0.1,0.2,0.2,0.2,0.4c0,0.2-0.1,0.3-0.2,0.4c-0.1,0.1-0.4,0.2-0.7,0.2
	c-0.6,0-1-0.3-1.1-0.8l-1.2,0.3c0.2,0.9,0.9,1.4,1.9,1.5v0.8h0.3h0.3v-0.8C-282.6,397.1-282.1,396.9-281.8,396.5z"/>
</svg>
