<?xml version="1.0" encoding="utf-8"?>
<!-- Generator: Adobe Illustrator 19.1.0, SVG Export Plug-In . SVG Version: 6.00 Build 0)  -->
<svg version="1.1" id="Layer_1" xmlns="http://www.w3.org/2000/svg" xmlns:xlink="http://www.w3.org/1999/xlink" x="0px" y="0px"
	 viewBox="-293 385 24 24" style="enable-background:new -293 385 24 24;" xml:space="preserve">
<style type="text/css">
	.st0{fill:#FFFFFF;}
</style>
<path class="st0" d="M-281.5,401.2c-0.1,0-0.5-0.1-0.5-0.2v-3.5c0-0.2,0-0.4-0.2-0.4h-2.7c-0.2,0-0.1,0.2-0.1,0.4v3.5
	c0,0.2-0.3,0-0.5,0h-3.8c-0.2,0-0.7,0.1-0.7-0.1V395h-1.6c-0.1,0-0.2-0.1-0.3-0.2c-0.1-0.1-0.1-0.3,0-0.4l8-7.4
	c0.1-0.1,0.3-0.1,0.4,0l2.4,2.2V388h3v3.7l2.8,2.7c0.1,0.1,0,0.3,0,0.4c-0.1,0.1-0.2,0.2-0.3,0.2h-1.5v1.2
	C-280,396.9-281.2,398.8-281.5,401.2z M-270.6,401.9c0,2.7-2.2,4.9-4.9,4.9c-2.7,0-4.9-2.2-4.9-4.9c0-2.7,2.2-4.9,4.9-4.9
	C-272.8,397-270.6,399.2-270.6,401.9z M-273.5,402.8c0-0.3-0.1-0.5-0.2-0.8c-0.2-0.2-0.4-0.4-0.6-0.5c-0.2-0.1-0.6-0.2-1.1-0.3
	c-0.3-0.1-0.5-0.1-0.6-0.2c-0.1-0.1-0.1-0.2-0.1-0.3c0-0.3,0.2-0.4,0.7-0.4c0.4,0,0.7,0.2,0.8,0.6l1.1-0.3c-0.2-0.7-0.4-1.1-1.4-1.1
	V399h-0.5h-0.5v0.4c0,0.1-0.7,0.2-1,0.5c-0.3,0.3-0.4,0.6-0.4,1c0,0.3,0.1,0.6,0.3,0.9c0.2,0.3,0.7,0.5,1.4,0.6
	c0.3,0.1,0.6,0.1,0.7,0.2c0.1,0.1,0.2,0.2,0.2,0.3c0,0.1-0.1,0.3-0.2,0.4c-0.1,0.1-0.3,0.2-0.6,0.2c-0.5,0-0.9-0.2-1-0.7l-1.1,0.2
	c0.2,0.8,0.6,1.3,1.6,1.3v0.6h0.5h0.5v-0.6c0-0.1,0.9-0.2,1.2-0.6C-273.6,403.6-273.5,403.2-273.5,402.8z"/>
</svg>
