<?xml version="1.0" encoding="utf-8"?>
<!-- Generator: Adobe Illustrator 19.0.0, SVG Export Plug-In . SVG Version: 6.00 Build 0)  -->
<svg version="1.1" id="Layer_1" xmlns="http://www.w3.org/2000/svg" xmlns:xlink="http://www.w3.org/1999/xlink" x="0px" y="0px"
	 viewBox="0 0 24 24" style="enable-background:new 0 0 24 24;" xml:space="preserve">
<style type="text/css">
	.st0{fill:#FFFFFF;}
</style>
<path class="st0" d="M22.1,12.4L11.4,1.7c-0.3-0.3-0.9-0.3-1.2,0c-0.3,0.3-0.3,0.9,0,1.2l0.6,0.7L3,18.4v0l-0.3-0.3
	c-0.3-0.3-0.8-0.3-1.2,0c-0.3,0.3-0.3,0.9,0,1.2l3,3c0.3,0.3,0.9,0.3,1.2,0c0.3-0.3,0.3-0.9,0-1.2l-0.3-0.3l0,0l1.8-1
	c0.6,1,1.7,1.6,2.8,1.6c0.5,0,1-0.1,1.4-0.3c1.6-0.8,2.3-2.7,1.5-4.3l7.2-3.8l0.7,0.7c0.3,0.3,0.9,0.3,1.2,0
	C22.4,13.3,22.4,12.8,22.1,12.4z M10.8,19.6C10,20,9.2,19.7,8.8,19l2.8-1.5C11.8,18.3,11.5,19.2,10.8,19.6z"/>
</svg>
