<?xml version="1.0" encoding="utf-8"?>
<!-- Generator: Adobe Illustrator 19.1.0, SVG Export Plug-In . SVG Version: 6.00 Build 0)  -->
<svg version="1.1" id="Layer_1" xmlns="http://www.w3.org/2000/svg" xmlns:xlink="http://www.w3.org/1999/xlink" x="0px" y="0px"
	 viewBox="-293 385 24 24" style="enable-background:new -293 385 24 24;" xml:space="preserve">
<style type="text/css">
	.st0{fill:#FFFFFF;}
</style>
<path class="st0" d="M-272.2,388.5h-17.7c-0.6,0-1.2,0.5-1.2,1.2V402c0,0.6,0.5,1.2,1.2,1.2h6.3l0,0v0.7c0,0.3-0.6,0.8-0.7,1
	c0,0-0.1,0.1-0.1,0.2v0.1c0,0.1,0.1,0.2,0.2,0.2h6.3c0.1,0,0.2-0.1,0.2-0.2v-0.1c0-0.1,0-0.1-0.1-0.2c-0.2-0.2-0.7-0.7-0.7-1v-0.7
	l0,0h6.4c0.6,0,1.2-0.5,1.2-1.2v-12.3C-271.1,389.1-271.6,388.5-272.2,388.5z M-289.7,401.8V390h17.3v11.7L-289.7,401.8
	L-289.7,401.8z M-281.1,389.1c0.1,0,0.2,0.1,0.2,0.2s-0.1,0.2-0.2,0.2s-0.2-0.1-0.2-0.2S-281.2,389.1-281.1,389.1z"/>
</svg>
