<?xml version="1.0" encoding="utf-8"?>
<!-- Generator: Adobe Illustrator 19.0.0, SVG Export Plug-In . SVG Version: 6.00 Build 0)  -->
<svg version="1.1" id="Layer_1" xmlns="http://www.w3.org/2000/svg" xmlns:xlink="http://www.w3.org/1999/xlink" x="0px" y="0px"
	 viewBox="-293 385 24 24" style="enable-background:new -293 385 24 24;" xml:space="preserve">
<style type="text/css">
	.st0{fill:#FFFFFF;}
</style>
<path class="st0" d="M-274.6,401.6c0,0,0,0.1,0,0.1c0,1.3-2.9,2.4-6.4,2.4c-3.5,0-6.4-1.1-6.4-2.4c0,0,0-0.1,0-0.1h0v-3.6l6.4,2.5
	l6.4-2.5L-274.6,401.6L-274.6,401.6z M-270.6,397.8c0-0.2-0.1-0.3-0.3-0.4h0v-2.2l1.6-0.6l-11.7-4.6l-11.7,4.6l11.7,4.6l9.8-3.9v2.1
	h0c-0.2,0.1-0.3,0.2-0.3,0.4c0,0.1,0.1,0.3,0.2,0.4l-0.7,1.3h1.8l-0.7-1.3C-270.7,398.1-270.6,398-270.6,397.8z"/>
</svg>
