<?xml version="1.0" encoding="utf-8"?>
<!-- Generator: Adobe Illustrator 19.0.0, SVG Export Plug-In . SVG Version: 6.00 Build 0)  -->
<svg version="1.1" id="Layer_1" xmlns="http://www.w3.org/2000/svg" xmlns:xlink="http://www.w3.org/1999/xlink" x="0px" y="0px"
	 viewBox="-293 385 24 24" style="enable-background:new -293 385 24 24;" xml:space="preserve">
<style type="text/css">
	.st0{fill:#FFFFFF;}
</style>
<path class="st0" d="M-287.5,389.2c0,1.8,0,3.8,0,5.8c0,0-1.2,0-2.5,0c0-2,0-4,0-5.8c0-1.5,1-2.2,1.5-2.1
	C-288.2,387.3-287.5,388-287.5,389.2z M-272.5,389.5v17.9l-2.4-2.1l-2.3,2.2l-2.3-2.2l-2.3,2.2l-2.3-2.2l-2.3,2.1
	c0-6.1,0-12.1,0-18.2c0-1.4-0.8-2.1-1.7-2.2v0h13.6C-273.5,387-272.5,388.2-272.5,389.5z M-279.5,400.7h-5.8v1.5h5.8
	C-279.5,402.2-279.5,400.7-279.5,400.7z M-274.4,401.2c0-0.2-0.1-0.4-0.2-0.6c-0.1-0.2-0.3-0.3-0.5-0.4c-0.2-0.1-0.5-0.2-0.9-0.2
	c-0.2,0-0.4-0.1-0.5-0.2c-0.1-0.1-0.1-0.1-0.1-0.2c0-0.2,0.2-0.4,0.6-0.4c0.3,0,0.6,0.2,0.7,0.5l0.8-0.3c-0.2-0.6-0.6-0.9-1.3-0.9
	v-0.5h-0.3h-0.3v0.5c-0.3,0-0.6,0.2-0.8,0.4c-0.2,0.2-0.3,0.5-0.3,0.8c0,0.3,0.1,0.5,0.3,0.7c0.2,0.2,0.6,0.4,1.1,0.5
	c0.3,0.1,0.5,0.1,0.6,0.2c0.1,0.1,0.1,0.2,0.1,0.3c0,0.1-0.1,0.2-0.2,0.3c-0.1,0.1-0.3,0.1-0.5,0.1c-0.4,0-0.7-0.2-0.8-0.6l-0.9,0.2
	c0.2,0.6,0.6,1,1.4,1.1v0.6h0.3h0.3v-0.6c0.5,0,0.8-0.2,1-0.4C-274.5,401.8-274.4,401.5-274.4,401.2z M-273.7,395h-11.5v1.5h11.5
	V395z M-273.7,389.8h-11.5v1.5h11.5V389.8z"/>
</svg>
