<?xml version="1.0" encoding="utf-8"?>
<!-- Generator: Adobe Illustrator 19.0.0, SVG Export Plug-In . SVG Version: 6.00 Build 0)  -->
<svg version="1.1" id="Layer_2" xmlns="http://www.w3.org/2000/svg" xmlns:xlink="http://www.w3.org/1999/xlink" x="0px" y="0px"
	 viewBox="-293 385 24 24" style="enable-background:new -293 385 24 24;" xml:space="preserve">
<style type="text/css">
	.st0{fill:#FFFFFF;}
</style>
<path class="st0" d="M-271.5,391.8c0-0.7-0.6-1.3-1.3-1.3h-17.5c-0.7,0-1.3,0.6-1.3,1.3v10.5c0,0.7,0.6,1.3,1.3,1.3h17.5
	c0.7,0,1.3-0.6,1.3-1.3C-271.5,402.2-271.5,391.8-271.5,391.8z M-286.5,394.9c0,0.3-0.2,0.6-0.6,0.6h-2.9c-0.3,0-0.6-0.2-0.6-0.6
	v-2.9c0-0.3,0.2-0.6,0.6-0.6h2.9c0.3,0,0.6,0.2,0.6,0.6V394.9z M-273.7,401.3c-0.4,0-0.8-0.2-1.1-0.5c-0.3,0.3-0.7,0.5-1.1,0.5
	c-0.8,0-1.5-0.7-1.5-1.5c0-0.8,0.7-1.5,1.5-1.5c0.4,0,0.8,0.2,1.1,0.5c0.3-0.3,0.7-0.5,1.1-0.5c0.8,0,1.5,0.7,1.5,1.5
	C-272.2,400.6-272.9,401.3-273.7,401.3z"/>
</svg>
