<?xml version="1.0" encoding="utf-8"?>
<!-- Generator: Adobe Illustrator 19.0.0, SVG Export Plug-In . SVG Version: 6.00 Build 0)  -->
<svg version="1.1" id="Layer_1" xmlns="http://www.w3.org/2000/svg" xmlns:xlink="http://www.w3.org/1999/xlink" x="0px" y="0px"
	 viewBox="-293 385 24 24" style="enable-background:new -293 385 24 24;" xml:space="preserve">
<style type="text/css">
	.st0{fill:#FFFFFF;}
</style>
<g>
	<path class="st0" d="M-281.3,390.9c0.4,0.1,0.9,0,1.2,0.2c0.2,0.1,0.2,0.5,0.6,0.5c0-0.1-0.1-0.2-0.1-0.3c0.7-0.2-0.1-0.4,0-0.8
		c0-0.2,0.6-0.5,0.7-0.5c-0.3-0.2-0.8-0.4-1,0c-0.1,0.2,0.1,0.1,0.2,0.1c0.1,0.5-0.5,0.3-0.8,0.3s-0.7-0.3-1,0.1
		C-281.7,390.7-281.7,390.8-281.3,390.9z"/>
	<path class="st0" d="M-280.1,392.7c0,0,0.4,0,0.4-0.1c0-0.3-1.8-0.7-1.7-0.2c0,0.1,0.6,0,0.7,0c-0.1,0.2-0.2,0.4-0.1,0.7
		c0.1,0.3,0.2-0.1,0.2-0.1c0.1-0.1-0.1-0.5,0.3-0.5C-280.2,392.5-280.1,392.5-280.1,392.7z"/>
	<path class="st0" d="M-277.3,392.3c0.5,0.4,0.4,0.1,0.7-0.3c-0.3,0-0.5,0-0.8,0C-277.3,392.1-277.3,392.2-277.3,392.3
		C-277.2,392.4-277.3,392.2-277.3,392.3z"/>
	<path class="st0" d="M-280.7,387.4c-4.1,0-7.8,2.6-9.2,6.5c-1.3,3.8-0.1,8.1,3,10.7s7.7,2.9,11.2,0.8s5.3-6.3,4.5-10.2
		C-272.1,390.7-276.1,387.4-280.7,387.4z M-273.6,400.2c-0.1,0.3-0.2,0.5-0.4,0.7c-0.3,0.6-0.3,1-0.8,1.5c-0.3,0.2-0.5,0.4-0.7,0.7
		c-0.3,0.5-0.6,0.8-1.2,0.9c0.6,0.1-0.8,0.6-0.7,0.6c-0.2,0.1-0.3,0.6-0.6,0.6c0.2,0.2-0.2,0.3-0.3,0.4c0.4,0.3-0.6,0.4-0.8,0.3
		c-0.7-0.5,0.3-0.7,0.4-1c-0.2-0.2-0.3,0-0.2-0.4c0-0.2,0.1-0.2,0.2-0.3c0-0.1,0.1-0.2,0.2-0.4c0.1-0.2,0.3-0.8,0.3-1.1
		c0-0.6-0.3-0.4-0.7-0.7c-0.3-0.2-0.3-0.5-0.5-0.8c-0.1-0.2-0.4-0.4-0.4-0.6c-0.1-0.7,0.8-1.3,0.5-2c-0.4,0.6-1.2-0.7-1.4-0.9
		c-0.2-0.1-0.3,0-0.5-0.1s-0.3-0.3-0.5-0.4c-0.3-0.1-0.6,0.1-0.9,0s-0.8-0.4-0.9-0.7c-0.1-0.1,0-0.3-0.1-0.5
		c-0.1-0.3-0.5-0.6-0.7-0.8c0.1,0.3,0.9,1.2,0.2,0.9c-0.4-0.2-0.6-0.9-0.9-1.3c-0.3-0.3-0.6-0.5-0.8-0.9c-0.2-0.5-0.2-1.2,0.2-1.5
		c-0.2-0.2-0.5-0.2-0.8-0.3c-0.2-0.1-0.2-0.3-0.4-0.3c-0.3-0.1-0.5,0.2-0.8,0.2c0.2-0.3,0.4-0.6,0.6-0.8c0.5-0.5,1.2-1.2,1.9-1.5
		c0.4-0.2,0.9-0.1,1.4-0.2c0.2,0,0.6-0.2,0.6-0.2c0.2,0,0.4,0.4,0.6,0.4c0.2,0.1,0.5,0.1,0.8,0c-0.6-0.1,0.3-0.5-0.2-0.7
		c-0.1,0-0.2,0.2-0.3,0.2c-0.2,0-0.3-0.1-0.5-0.1c-0.2-0.1-0.4-0.2-0.6-0.3c1.4-0.1,2.9-0.6,4.3-0.4c1.9,0.3,3.6,1.4,5,2.7
		c-0.2,0-0.5-0.2-0.7-0.1c0,0.1,0.2,0.4,0.2,0.4c-0.6-0.1-1.9-0.6-1.5-1.3c-0.1-0.2-0.6-0.3-0.8-0.4c-0.4-0.3-0.6-0.2-1.1-0.3
		c-0.4-0.1-0.5-0.4-0.8-0.4c-0.1,0-0.8,0-0.8,0.1c0,0.6,2.2,0.6,2.4,0.9c0.2,0.3,0,0.3-0.3,0.4c-0.5,0.3-0.6,0.1-1.1-0.1
		c0.2,0.1,0.6,0.6,0.7,0.6c0.2,0,0.3-0.3,0.4-0.3s0.2,0.1,0.3,0.1c0.1,0.1,0.2,0.2,0.3,0.3c0.1,0.2,0.2,0.3,0.5,0.3
		c0.2,0.2,0.2,0.3,0.4,0.5c0,0.1,0,0.2,0.1,0.3c0.1,0,0.1,0,0.2,0c0.6,0.9-0.2,0.3-0.6,0.3c-0.2,0-0.5,0.4-0.9,0.4
		c-0.1,0-0.5-0.1-0.4-0.2c-0.3,0.1-0.3,0.3-0.4,0.4c-0.4,0.3-0.6,0.2-0.7,0.7c-0.2,0.4,0,0.3-0.4,0.5c-0.4,0.3-0.4,0-0.4,0.5
		c0,0.2,0.4,0.8-0.1,0.8c-0.4,0-0.4-0.9-1.1-0.9c-0.1,0-0.2,0.2-0.3,0.2c-0.3,0-0.5-0.1-0.8,0c-0.4,0.3-0.6,1.2,0,1.4
		c0.4,0.2,0.5-0.4,0.9-0.5c1-0.1,0,0.5,0.2,0.8s0.6-0.2,0.8,0.4c0.1,0.3-0.2,0.6,0.2,0.8c0.2,0.1,0.5-0.5,0.7-0.1
		c0.4-0.4,0.7-0.4,1.2-0.3s1,0,1.4,0.3c0.1,0.1,0.3,0.4,0.4,0.5s0.3,0,0.4,0c0.4,0.2,0.5,0.4,0.5,0.9c0.2-0.1,1.2,0.2,1.3,0.3
		C-273.7,399.9-273.5,400-273.6,400.2z M-277.3,396.6c0,0.3-0.3,0.1-0.3,0.1S-277.3,396.3-277.3,396.6
		C-277.4,396.8-277.3,396.6-277.3,396.6z M-277.7,396.8c-0.1,0.2-0.8-0.1-0.9-0.2C-278.5,396.5-277.6,396.4-277.7,396.8z
		 M-278.7,396.4c-0.4,0.3-1.1-0.4-1.6-0.3C-279.8,395.7-279.2,396-278.7,396.4z M-272.2,397.5c-0.2-0.6-0.1-1.3,0.2-1.9
		c0.4,0.8,0.3,1.7,0.1,2.5C-272,398-272.1,397.7-272.2,397.5z"/>
</g>
</svg>
