<?xml version="1.0" encoding="utf-8"?>
<!-- Generator: Adobe Illustrator 19.0.0, SVG Export Plug-In . SVG Version: 6.00 Build 0)  -->
<svg version="1.1" id="Layer_1" xmlns="http://www.w3.org/2000/svg" xmlns:xlink="http://www.w3.org/1999/xlink" x="0px" y="0px"
	 viewBox="-293 385 24 24" style="enable-background:new -293 385 24 24;" xml:space="preserve">
<style type="text/css">
	.st0{fill:#FFFFFF;}
</style>
<path class="st0" d="M-270.8,395.1c0.1,0.2,0.2,0.6,0.1,1.1c0,0.2-0.1,0.3-0.2,0.4c-0.1-0.1-0.2-0.3-0.2-0.4
	c-0.2-0.5-0.1-0.9,0.1-1.1c0,0,0.1-0.1,0.2-0.1C-270.9,395-270.8,395.1-270.8,395.1z M-269.4,396.6c-0.4,0.7-0.9,0.8-1.1,0.7
	c-0.1,0-0.3,0-0.4-0.1c-0.1,0-0.1,0-0.2,0.1c-0.1,0-0.2,0-0.3,0c-0.2,0-0.4-0.1-0.6-0.1c-0.1,0.7-0.4,1.4-0.7,2
	c-0.4,0.8-2,4.1-2.4,4.9c-0.2,0.3-0.4,0.7-0.8,0.7h-2.3c-0.4,0-0.7-0.3-0.7-0.7v-1.1h-3.7v1.1c0,0.4-0.3,0.7-0.7,0.7h-2.4
	c-0.4,0-0.7-0.3-0.7-0.7v-1.6c-2.2-1-3.9-2.6-4.5-4.5c-0.5-0.1-1-0.3-1.2-0.6c-0.8-1-0.6-3-0.6-3l1.9-0.1c0.4-1.1,1.2-2.1,2.2-3
	l-1.2-2c0,0,1.1-0.3,2.4-0.1c0.7,0.1,1.3,0.3,1.7,0.5c1.3-0.5,2.7-0.7,4.2-0.7c5.3,0,9.6,2.2,9.6,6.7c0,0.3,0,0.6,0,0.8
	c0.1,0.1,0.4,0.2,0.5,0.2c-0.1-0.1-0.2-0.3-0.3-0.5c-0.2-0.6-0.1-1.1,0.1-1.5c0.1-0.2,0.3-0.3,0.5-0.3c0.2,0,0.4,0.1,0.5,0.3
	c0.3,0.3,0.3,0.9,0.1,1.5c-0.1,0.2-0.1,0.4-0.2,0.5c0,0,0,0,0.1,0c0.3,0,0.5-0.3,0.7-0.5c0.1-0.1,0.2-0.2,0.3-0.1
	C-269.3,396.3-269.3,396.5-269.4,396.6z M-286.8,393L-286.8,393c-0.3-0.3-0.7-0.3-1,0c-0.3,0.3-0.3,0.7,0,1l0,0c0.3,0.3,0.7,0.3,1,0
	C-286.5,393.8-286.5,393.3-286.8,393z M-277.6,390.9L-277.6,390.9c0-0.3-0.2-0.5-0.5-0.5h-5.9c-0.3,0-0.5,0.2-0.5,0.5v0
	c0,0.3,0.2,0.5,0.5,0.5h5.9C-277.8,391.4-277.6,391.2-277.6,390.9z M-270.8,395.1c0-0.1-0.1-0.1-0.1-0.1c-0.1,0-0.1,0.1-0.2,0.1
	c-0.1,0.2-0.2,0.6,0,1.1c0.1,0.2,0.1,0.3,0.2,0.4c0.1-0.1,0.1-0.2,0.2-0.4C-270.6,395.7-270.7,395.3-270.8,395.1z"/>
</svg>
