<?xml version="1.0" encoding="utf-8"?>
<!-- Generator: Adobe Illustrator 19.0.0, SVG Export Plug-In . SVG Version: 6.00 Build 0)  -->
<svg version="1.1" id="Layer_1" xmlns="http://www.w3.org/2000/svg" xmlns:xlink="http://www.w3.org/1999/xlink" x="0px" y="0px"
	 viewBox="-293 385 24 24" style="enable-background:new -293 385 24 24;" xml:space="preserve">
<style type="text/css">
	.st0{fill:#FFFFFF;}
</style>
<path class="st0" d="M-279.1,400h7.1v2.9c0,0.6-0.3,1.1-0.9,1.1h-17.5c-0.6,0-0.5-0.5-0.5-1.1v-12.3c0-0.6-0.1-0.5,0.5-0.5h17.5
	c0.6,0,0.9,0,0.9,0.5v2.5h-7.1c-1.5,0-2.9,1.7-2.9,3.5v0.4C-282,398.7-280.6,400-279.1,400z M-271,394v5h-8.2c-1,0-1.8-0.7-1.8-2.1
	v-0.5c0-1.3,0.7-2.5,1.8-2.5H-271z M-276.5,396.7c0-0.8-0.6-1.4-1.4-1.4c-0.8,0-1.4,0.6-1.4,1.4c0,0.8,0.6,1.4,1.4,1.4
	C-277.1,398.1-276.5,397.5-276.5,396.7z"/>
</svg>
