<?xml version="1.0" standalone="no"?>
<!DOCTYPE svg PUBLIC "-//W3C//DTD SVG 1.1//EN" "http://www.w3.org/Graphics/SVG/1.1/DTD/svg11.dtd">
<svg xmlns="http://www.w3.org/2000/svg">
<metadata>Copyright (C) 2016 by original authors @ fontello.com</metadata>
<defs>
<font id="fontello" horiz-adv-x="1000" >
<font-face font-family="fontello" font-weight="400" font-stretch="normal" units-per-em="1000" ascent="850" descent="-150" />
<missing-glyph horiz-adv-x="1000" />
<glyph glyph-name="debit_card" unicode="&#xe800;" d="m458 142h84v41h41c23 0 42 19 42 42v125c0 23-19 42-42 42h-125v41h167v84h-83v41h-84v-41h-41c-23 0-42-19-42-42v-125c0-23 19-42 42-42h125v-41h-167v-84h83v-41z m375 541h-666c-47 0-83-37-83-83l-1-500c0-46 37-83 84-83h666c47 0 84 37 84 83v500c0 46-37 83-84 83z m0-583h-666v500h666v-500z" horiz-adv-x="1000" />
<glyph glyph-name="arrow_down" unicode="&#xe801;" d="m833 350l-58 59-233-233v507h-84v-507l-232 233-59-59 333-333 333 333z" horiz-adv-x="1000" />
<glyph glyph-name="auto" unicode="&#xe802;" d="m788 600c-8 24-31 42-59 42h-458c-28 0-51-18-59-42l-87-250v-333c0-23 19-42 42-42h41c23 0 42 19 42 42v41h500v-41c0-23 19-42 42-42h41c23 0 42 19 42 42v333l-87 250z m-517-417c-35 0-63 28-63 63s28 62 63 62 62-28 62-62-28-63-62-63z m458 0c-34 0-62 28-62 63s28 62 62 62 63-28 63-62-28-63-63-63z m-521 209l63 187h458l63-187h-584z" horiz-adv-x="1000" />
<glyph glyph-name="engage" unicode="&#xe803;" d="m756 506c-1 0-1-1-2-1-28 32-61 58-99 77 0 0 0 0 0 0-1 1-2 1-3 2-1 0-3 1-4 2-1 0-2 1-2 1-30 14-62 24-96 29l72 99-62 52h-62-62l-62-52 73-99c-165-24-291-167-291-338 0-89 34-170 89-231 0 0 1 0 1 0 63-70 154-114 255-114 190 0 343 153 343 343 0 88-33 169-88 230z m-455-405c-41 47-66 108-66 175 0 147 120 266 267 266 17 0 35-2 51-5 120-26 210-132 210-259 0-147-118-265-265-265-29 0-57 4-84 13 0 0-1-1-1-1-38 13-71 34-99 62 0 0 0 0 0 0-4 5-9 9-13 14z" horiz-adv-x="1000" />
<glyph glyph-name="open_in_new" unicode="&#xe804;" d="m792 58h-584v584h292v83h-292c-46 0-83-37-83-83v-584c0-45 37-83 83-83h584c46 0 83 38 83 83v292h-83v-292z m-209 667v-83h150l-410-410 59-59 410 410v-150h83v292h-292z" horiz-adv-x="1000" />
<glyph glyph-name="success" unicode="&#xe805;" d="m375 175l-175 175-58-58 233-234 500 500-58 59-442-442z" horiz-adv-x="1000" />
<glyph glyph-name="tablet" unicode="&#xe806;" d="m771 850h-583c-58 0-105-47-105-104v-792c0-57 47-104 105-104h583c57 0 104 47 104 104v792c0 57-47 104-104 104z m-292-958c-34 0-62 28-62 62s28 63 62 63 63-28 63-63-28-62-63-62z m313 166h-625v667h625v-667z" horiz-adv-x="1000" />
<glyph glyph-name="overdraft" unicode="&#xe807;" d="m521 563c74 0 102-36 104-88h92c-3 72-47 138-134 159v91h-125v-90c-22-5-43-12-61-22l61-62c17 7 38 12 63 12z m-299 118l-53-53 144-143c0-87 65-134 162-163l147-147c-14-20-44-37-101-37-86 0-120 38-124 87h-92c5-91 73-142 153-160v-90h125v90c40 7 76 23 102 46l93-92 53 53-609 609z" horiz-adv-x="1000" />
<glyph glyph-name="expand" unicode="&#xe808;" d="m691 492l-191-191-191 191-59-59 250-250 250 250-59 59z" horiz-adv-x="1000" />
<glyph glyph-name="bill_pay" unicode="&#xe809;" d="m888 92v-45c0-48-40-88-88-88h-619c-48 0-88 40-88 88v619c0 48 40 88 88 88h619c48 0 88-40 88-88v-44h-397c-49 0-89-40-89-89v-353c0-49 40-88 89-88h397z m-397 88h441v353h-441v-353z m176 110c-35 0-66 31-66 67s31 66 66 66c36 0 67-31 67-66s-31-67-67-67z" horiz-adv-x="1000" />
<glyph glyph-name="arrow_up" unicode="&#xe80a;" d="m167 350l58-59 233 233v-507h84v507l232-233 59 59-333 333-333-333z" horiz-adv-x="1000" />
<glyph glyph-name="vehicle" unicode="&#xe80b;" d="m833-25c-58 0-115 20-166 55-102-71-232-71-334 0-50-35-108-55-166-55h-84v-83h84c57 0 114 14 166 41 105-54 229-54 334 0 52-27 109-41 166-41h84v83h-84z m-668 83h2c66 0 126 37 166 84 41-47 100-84 167-84 67 0 126 37 167 84 41-47 100-84 166-84h2l79 279c4 11 3 22-2 32-5 10-14 18-25 21l-54 18v192c0 46-37 83-83 83h-125v125h-250v-125h-125c-46 0-83-37-83-83v-192l-54-18c-11-3-20-11-25-21-5-10-6-21-3-32l80-279z m85 542h500v-165l-250 82-250-82v165z" horiz-adv-x="1000" />
<glyph glyph-name="categorized" unicode="&#xe80c;" d="m167 267h166v166h-166v-166z m0-209h166v167h-166v-167z m0 417h166v167h-166v-167z m208-208h500v166h-500v-166z m0-209h500v167h-500v-167z m0 584v-167h500v167h-500z" horiz-adv-x="1000" />
<glyph glyph-name="direct_deposit" unicode="&#xe80d;" d="m500 163l167 166h-125v375h-84v-375h-125l167-166z m375 541h-250v-83h250v-584h-750v584h250v83h-250c-46 0-83-37-83-83v-583c0-46 37-84 83-84h750c46 0 83 38 83 84v583c0 46-37 83-83 83z" horiz-adv-x="1000" />
<glyph glyph-name="campaigns" unicode="&#xe80e;" d="m934 333l-451 451c-12 12-37 12-50 0-13-13-13-38 0-51l25-29-328-623 0 0-13 12c-13 13-34 13-50 0-13-12-13-38 0-50l126-127c12-12 38-12 50 0 13 13 13 38 0 51l-12 12 0 0 76 43c25-43 71-68 117-68 22 0 43 4 59 13 68 34 97 114 64 181l303 160 29-29c13-13 38-13 51 0 17 16 17 37 4 54z m-497-282c-34-17-67-4-84 25l118 63c8-33-4-71-34-88z" horiz-adv-x="1000" />
<glyph glyph-name="external_transfers" unicode="&#xe80f;" d="m167 433v-291h125v291h-125z m250 0v-291h125v291h-125z m-334-500h792v125h-792v-125z m584 500v-291h125v291h-125z m-188 375l-396-208v-83h792v83l-396 208z" horiz-adv-x="1000" />
<glyph glyph-name="paused" unicode="&#xe810;" d="m250 58h167v584h-167v-584z m333 584v-584h167v584h-167z" horiz-adv-x="1000" />
<glyph glyph-name="tax_payments" unicode="&#xe811;" d="m740 765h-480c-44 0-80-36-80-80v-669c0-45 36-81 80-81h480c44 0 80 36 80 81v669c0 44-36 80-80 80z m-337-707c0-8-6-14-13-14h-77c-8 0-14 6-14 14v61c0 7 6 14 14 14h77c7 0 13-7 13-14v-61z m0 133c0-7-6-14-13-14h-77c-8 0-14 7-14 14v61c0 8 6 14 14 14h77c7 0 13-6 13-14v-61z m0 133c0-7-6-13-13-13h-77c-8 0-14 6-14 13v62c0 7 6 13 14 13h77c7 0 13-6 13-13v-62z m149-266c0-8-6-14-13-14h-77c-8 0-14 6-14 14v61c0 7 6 14 14 14h77c7 0 13-7 13-14v-61z m0 133c0-7-6-14-13-14h-77c-8 0-14 7-14 14v61c0 8 6 14 14 14h77c7 0 13-6 13-14v-61z m0 133c0-7-6-13-13-13h-77c-8 0-14 6-14 13v62c0 7 6 13 14 13h77c7 0 13-6 13-13v-62z m149-266c0-8-6-14-13-14h-77c-8 0-14 6-14 14v61c0 7 6 14 14 14h77c7 0 13-7 13-14v-61z m0 133c0-7-6-14-13-14h-77c-8 0-14 7-14 14v61c0 8 6 14 14 14h77c7 0 13-6 13-14v-61z m0 133c0-7-6-13-13-13h-77c-8 0-14 6-14 13v62c0 7 6 13 14 13h77c7 0 13-6 13-13v-62z m25 198c0-16-13-28-31-28h-390c-17 0-31 12-31 28v121c0 16 14 28 31 28h390c18 0 31-12 31-28v-121z" horiz-adv-x="1000" />
<glyph glyph-name="text_edit" unicode="&#xe812;" d="m414 288h172l-86 230-86-230z m419 479h-666c-46 0-84-38-84-84v-666c0-46 38-84 84-84h666c46 0 84 38 84 84v666c0 46-38 84-84 84z m-168-688l-48 125h-235l-47-125h-87l213 542h78l213-542h-87z" horiz-adv-x="1000" />
<glyph glyph-name="third_party" unicode="&#xe813;" d="m833 683h-666v-83h666v83z m42-416v83l-42 208h-666l-42-208v-83h42v-250h416v250h167v-250h83v250h42z m-375-167h-250v167h250v-167z" horiz-adv-x="1000" />
<glyph glyph-name="time" unicode="&#xe814;" d="m500 767c-230 0-417-187-417-417 0-230 187-417 417-417 230 0 417 187 417 417 0 230-187 417-417 417z m0-750c-184 0-333 149-333 333s149 333 333 333 333-149 333-333-149-333-333-333z m21 541h-63v-250l219-131 31 51-187 112v218z" horiz-adv-x="1000" />
<glyph glyph-name="transfers" unicode="&#xe815;" d="m291 392l-166-167 166-167v125h292v84h-292v125z m584 83l-166 167v-125h-292v-84h292v-125l166 167z" horiz-adv-x="1000" />
<glyph glyph-name="travel" unicode="&#xe816;" d="m424 475l451-292v84l-333 208v229c0 35-28 63-63 63s-62-28-62-63v-229l-334-208v-84l334 105v-230l-84-62v-63l146 42 146-42v63l-83 62v230l333-105z" horiz-adv-x="1000" />
<glyph glyph-name="trending_down" unicode="&#xe817;" d="m667 100l95 95-203 204-167-167-309 309 59 59 250-250 167 167 262-262 96 95v-250h-250z" horiz-adv-x="1000" />
<glyph glyph-name="trending_up" unicode="&#xe818;" d="m667 600l95-95-203-204-167 167-309-309 59-59 250 250 167-167 262 262 96-95v250h-250z" horiz-adv-x="1000" />
<glyph glyph-name="upload" unicode="&#xe819;" d="m208 683v-83h584v83h-584z m0-416h167v-250h250v250h167l-292 291-292-291z" horiz-adv-x="1000" />
<glyph glyph-name="usage_statistics" unicode="&#xe81a;" d="m792 725h-584c-45 0-83-37-83-83v-584c0-45 38-83 83-83h584c46 0 83 38 83 83v584c0 46-37 83-83 83z m-417-583h-83v291h83v-291z m167 0h-84v416h84v-416z m166 0h-83v166h83v-166z" horiz-adv-x="1000" />
<glyph glyph-name="warning" unicode="&#xe81b;" d="m42-25h916l-458 792-458-792z m500 125h-84v83h84v-83z m0 167h-84v166h84v-166z" horiz-adv-x="1000" />
<glyph glyph-name="payroll" unicode="&#xe81c;" d="m353 616c21 9 126 53 240 21 24 44 73 97 122 97 0 0-82 73-155 57-77-16-109-37-178-8-69 28-146-45-167-85-4 0 94-29 138-82-4 0-4 0 0 0z m471-399c0-154-150-276-333-276-182 0-333 126-333 276 0 118 90 276 211 341 25 12 110 45 207 21 143-53 248-232 248-362z m-187-20c0 20-4 40-16 57-12 16-24 28-44 36-17 8-45 16-82 21-20 4-36 8-40 16-8 4-8 12-8 20 0 20 16 33 48 33s53-13 61-41l69 24c-16 49-57 77-113 81v45h-25-24v-44c-33-5-57-17-77-37-21-20-29-45-29-73 0-24 8-45 25-65 16-20 48-33 101-45 25-4 41-8 49-16 8-4 12-12 12-24s-4-21-12-25c-8-8-24-12-45-12-40 0-65 16-73 49l-77-16c16-57 57-90 122-98v-53h24 24v53c41 4 74 16 94 41 24 20 36 45 36 73z" horiz-adv-x="1000" />
<glyph glyph-name="filter" unicode="&#xe81d;" d="m417 100h166v83h-166v-83z m-292 500v-83h750v83h-750z m125-292h500v84h-500v-84z" horiz-adv-x="1000" />
<glyph glyph-name="checkbox_checked" unicode="&#xe81e;" d="m792 725h-584c-46 0-83-37-83-83v-584c0-45 37-83 83-83h584c46 0 83 38 83 83v584c0 46-37 83-83 83z m-375-583l-209 208 59 59 150-149 316 316 59-59-375-375z" horiz-adv-x="1000" />
<glyph glyph-name="estatements" unicode="&#xe81f;" d="m250 767c-46 0-83-38-83-84l0-666c0-46 37-84 83-84h500c46 0 83 38 83 84v500l-250 250h-333z m292-292v229l229-229h-229z" horiz-adv-x="1000" />
<glyph glyph-name="charge_off" unicode="&#xe820;" d="m951 376c-5 0-10 0-10-5-5-11-16-21-26-21 5 5 5 10 10 21 6 25 6 46-5 61-5 5-10 10-20 10-10 0-16-5-21-10-10-15-10-36-5-56 5-6 5-16 10-21-5 0-15 5-20 5 0 11 0 21 0 31 0 136-98 219-239 251l-56-140 84 7-128-265-15 190-63-5-18 226c-41-4-80-12-113-23-15 5-41 15-67 20-51 5-92-5-92-5l46-77c-41-31-71-71-87-118l-77-5c0 0-5-77 26-118 5-10 26-15 51-20 26-77 92-143 179-179v-62c0-15 11-25 26-25h97c16 0 26 10 26 25v41h148v-41c0-15 11-25 26-25h92c16 0 26 15 31 25 15 36 82 164 97 195 16 26 21 51 26 82 5-5 15-5 20-5 6 0 10 0 10 0s6 0 6 5c5 0 10-5 15-5 10 0 31 0 46 31-5-5-5 0-10 5z m-678 79c-12-12-36-12-48 0-12 12-12 36 0 48 12 11 36 11 48 0 11-18 11-36 0-48z m627-79c0-5-5-11-5-16 0 0 0 6-5 6 0 5-6 5-6 10-5 20-5 36 0 41l6 5c0 0 5 0 5-5 10-5 10-21 5-41z" horiz-adv-x="1000" />
<glyph glyph-name="commercial_real_estate" unicode="&#xe821;" d="m500 558v167h-417v-750h834v583h-417z m-250-500h-83v84h83v-84z m0 167h-83v83h83v-83z m0 167h-83v83h83v-83z m0 166h-83v84h83v-84z m167-500h-84v84h84v-84z m0 167h-84v83h84v-83z m0 167h-84v83h84v-83z m0 166h-84v84h84v-84z m250-501h-84v85h84v-85z m0 168h-84v85h84v-85z m0 167h-84v85h84v-85z m166-336h-83v85h83v-85z m0 168h-83v85h83v-85z m0 167h-83v85h83v-85z" horiz-adv-x="1000" />
<glyph glyph-name="location" unicode="&#xe822;" d="m500 767c-161 0-292-131-292-292 0-219 292-542 292-542s292 323 292 542c0 161-131 292-292 292z m0-396c-57 0-104 47-104 104s47 104 104 104 104-46 104-104-46-104-104-104z" horiz-adv-x="1000" />
<glyph glyph-name="checkbox_unchecked" unicode="&#xe823;" d="m792 642v-584h-584v584h584m0 83h-584c-45 0-83-37-83-83v-584c0-45 38-83 83-83h584c46 0 83 38 83 83v584c0 46-37 83-83 83z" horiz-adv-x="1000" />
<glyph glyph-name="flag" unicode="&#xe824;" d="m600 600l-17 83h-375v-708h84v292h233l17-84h291v417h-233z" horiz-adv-x="1000" />
<glyph glyph-name="personal_loan" unicode="&#xe825;" d="m776 517c50 0 92 42 92 92s-42 91-92 91-91-41-91-91 41-92 91-92z m-16-325c50 0 91 42 91 92s-41 91-91 91c-50 0-92-41-92-91 4-55 42-92 92-92z m-200 125c50 0 91 42 91 92s-41 91-91 91c-50 0-92-41-92-91 4-50 42-92 92-92z m275-179c-117-34-225-59-259-63-29-4-158 79-179 92 8 29 25 25 46 12 29-16 92-50 112-62 38-21 105 37 34 87-59 42-129 100-196 117-33 8-133-12-163-21-66-25-154-41-154-41v-263l175-8c0 0 242-59 300-55 59 5 229 63 325 109 84 37 50 125-41 96z" horiz-adv-x="1000" />
<glyph glyph-name="phone" unicode="&#xe826;" d="m646 808h-333c-58 0-105-46-105-104v-708c0-58 47-104 105-104h333c57 0 104 46 104 104v708c0 58-47 104-104 104z m-167-875c-34 0-62 28-62 63s28 62 62 62 63-28 63-62-28-63-63-63z m188 167h-375v583h375v-583z" horiz-adv-x="1000" />
<glyph glyph-name="fullscreen_exit" unicode="&#xe827;" d="m208 183h125v-125h84v209h-209v-84z m125 334h-125v-84h209v209h-84v-125z m250-459h84v125h125v84h-209v-209z m84 459v125h-84v-209h209v84h-125z" horiz-adv-x="1000" />
<glyph glyph-name="checking" unicode="&#xe828;" d="m678 245l75 42c4 0 4 4 4 8v62c0 5 0 5-4 9l-38 20c-4 0-4 0-8 0l-54-29c-4 0-4-4-4-8v-87l29-17z m17 204c-9 4-13 17-9 29l84 146c25 46 83 62 128 33 46-25 63-83 34-129l-83-146c-5-8-17-12-30-8l-20 13v-92c0-21-9-37-25-46l-146-83c-4-4-8-4-17 0-4 4-8 8-8 13v166c0 21 8 37 25 46l79 46-12 12z m-185-137c8 0 17-9 17-17v-17c0-8-9-16-17-16h-291c-9 0-17 8-17 16v17c0 8 8 17 17 17h291z m0-104c8 0 17-9 17-17v-17c0-8-9-16-17-16h-291c-9 0-17 8-17 16v17c0 8 8 17 17 17h291z m-383-121h672v121l16 8c21 12 38 33 46 58v-216c0-17-12-29-29-29h-749c-17 0-29 12-29 29v358c0 16 12 29 29 29h557l-24-13c-21-12-34-25-42-46h-443v-299h-4v0z" horiz-adv-x="1000" />
<glyph glyph-name="login" unicode="&#xe829;" d="m420 200l59-58 209 208-209 208-59-58 108-108h-403v-84h403l-108-108z m372 525h-584c-46 0-83-37-83-83v-167h83v167h584v-584h-584v167h-83v-167c0-45 37-83 83-83h584c46 0 83 38 83 83v584c0 46-37 83-83 83z" horiz-adv-x="1000" />
<glyph glyph-name="commercial" unicode="&#xe82a;" d="m833 600h-166v83c0 47-37 84-84 84h-166c-47 0-84-37-84-84v-83h-166c-47 0-83-37-83-83l-1-459c0-46 37-83 84-83h666c47 0 84 37 84 83v459c0 46-37 83-84 83z m-250 0h-166v83h166v-83z" horiz-adv-x="1000" />
<glyph glyph-name="money_market" unicode="&#xe82b;" d="m167 319c0-184 150-334 333-334 183 0 333 150 333 334h-83c0-138-112-250-250-250s-250 112-250 250 113 250 250 250v-84l167 125-167 125v-83c-183 0-333-150-333-333z m339 15c-32 8-43 17-43 30 0 16 15 26 38 26 25 0 35-12 35-29h31c-1 24-15 46-45 53v31h-42v-30c-27-6-49-24-49-51 0-32 27-48 66-58 35-8 42-21 42-34 0-9-7-25-38-25-29 0-40 13-42 30h-30c1-31 24-48 51-54v-31h42v31c28 5 50 21 50 49 0 40-35 54-66 62z" horiz-adv-x="1000" />
<glyph glyph-name="logoff" unicode="&#xe82c;" d="m285 308h403v84h-403l107 108-59 58-208-208 208-208 59 58-107 108z m507 417h-584c-46 0-83-37-83-83v-167h83v167h584v-584h-584v167h-83v-167c0-45 37-83 83-83h584c46 0 83 38 83 83v584c0 46-37 83-83 83z" horiz-adv-x="1000" />
<glyph glyph-name="chevron_left" unicode="&#xe82d;" d="m642 541l-59 59-250-250 250-250 59 59-191 191 191 191z" horiz-adv-x="1000" />
<glyph glyph-name="fullscreen" unicode="&#xe82e;" d="m292 267h-84v-209h209v84h-125v125z m-84 166h84v125h125v84h-209v-209z m500-291h-125v-84h209v209h-84v-125z m-125 500v-84h125v-125h84v209h-209z" horiz-adv-x="1000" />
<glyph glyph-name="purchase" unicode="&#xe82f;" d="m292 100c-46 0-83-37-83-83s37-84 83-84 83 38 83 84-37 83-83 83z m-250 667v-84h83l150-316-56-102c-7-12-11-25-11-40 0-46 38-83 84-83h500v83h-483c-6 0-10 5-10 10l1 5 38 68h310c31 0 59 17 73 43l149 271c3 6 5 13 5 20 0 23-19 41-42 41h-616l-39 84h-136z m666-667c-45 0-83-37-83-83s38-84 83-84 84 38 84 84-38 83-84 83z" horiz-adv-x="1000" />
<glyph glyph-name="queued" unicode="&#xe830;" d="m917 612l-192 161-54-64 192-161 54 64z m-589 97l-53 64-192-161 54-64 191 161z m193-192h-63v-250l198-119 32 51-167 99v219z m-21 166c-207 0-375-168-375-375 0-207 168-375 375-375 207 0 375 168 375 375 0 207-168 375-375 375z m0-666c-161 0-292 130-292 291s131 292 292 292 292-130 292-292-131-291-292-291z" horiz-adv-x="1000" />
<glyph glyph-name="help" unicode="&#xe831;" d="m500 767c-230 0-417-187-417-417 0-230 187-417 417-417 230 0 417 187 417 417 0 230-187 417-417 417z m42-709h-84v84h84v-84z m86 323l-38-38c-30-30-48-55-48-118h-84v21c0 46 19 87 49 118l52 52c15 15 24 36 24 59 0 46-37 83-83 83-46 0-83-37-83-83h-84c0 92 75 167 167 167s167-75 167-167c0-37-15-70-39-94z" horiz-adv-x="1000" />
<glyph glyph-name="chevron_right" unicode="&#xe832;" d="m417 600l-59-59 191-191-191-191 59-59 250 250-250 250z" horiz-adv-x="1000" />
<glyph glyph-name="plus" unicode="&#xe833;" d="m792 308h-250v-250h-84v250h-250v84h250v250h84v-250h250v-84z" horiz-adv-x="1000" />
<glyph glyph-name="pfm" unicode="&#xe834;" d="m875 392h-333v333c184 0 333-149 333-333m-83-84c0-115-59-218-149-278l-160 278h309m-334-333c-115 0-218 59-278 149l271 156 156-270c-44-23-95-35-149-35m-333 333c0 184 149 334 333 334v-309l-298-173c-22 44-35 95-35 148z" horiz-adv-x="1000" />
<glyph glyph-name="trust" unicode="&#xe835;" d="m709-67v250h125l-106 318c-12 34-43 57-79 57h-5c-36 0-68-23-79-57l-106-318h125v-250h125z m-63 667c46 0 84 37 84 83s-38 84-84 84-83-37-83-84 37-83 83-83z m-437-667v214h-43v156c0 31 26 57 57 57h86c31 0 56-26 56-57v-156h-42v-214h-114z m57 455c37 0 66 30 66 67 0 36-29 66-66 66-37 0-66-30-66-66 0-37 29-67 66-67z" horiz-adv-x="1000" />
<glyph glyph-name="stay" unicode="&#xe836;" d="m281 328c72 0 131 59 131 132 0 72-59 131-131 131-73 0-132-59-132-131 0-73 59-132 132-132z m526 263h-351v-307h-351v395h-88v-658h88v132h790v-132h88v395c0 97-79 175-176 175z" horiz-adv-x="1000" />
<glyph glyph-name="close" unicode="&#xe837;" d="m792 583l-59 59-233-233-233 233-59-59 233-233-233-233 59-59 233 233 233-233 59 59-233 233 233 233z" horiz-adv-x="1000" />
<glyph glyph-name="home" unicode="&#xe838;" d="m417 17v250h166v-250h209v333h125l-417 375-417-375h125v-333h209z" horiz-adv-x="1000" />
<glyph glyph-name="radio_checked" unicode="&#xe839;" d="m500 558c-115 0-208-93-208-208s93-208 208-208 208 93 208 208-93 208-208 208z m0 209c-230 0-417-187-417-417 0-230 187-417 417-417 230 0 417 187 417 417 0 230-187 417-417 417z m0-750c-184 0-333 149-333 333s149 333 333 333 333-149 333-333-149-333-333-333z" horiz-adv-x="1000" />
<glyph glyph-name="radio_unchecked" unicode="&#xe83a;" d="m500 767c-230 0-417-187-417-417 0-230 187-417 417-417 230 0 417 187 417 417 0 230-187 417-417 417z m0-750c-184 0-333 149-333 333s149 333 333 333 333-149 333-333-149-333-333-333z" horiz-adv-x="1000" />
<glyph glyph-name="import_export" unicode="&#xe83b;" d="m375 725l-167-166h125v-292h84v292h125l-167 166z m292-584v292h-84v-292h-125l167-166 167 166h-125z" horiz-adv-x="1000" />
<glyph glyph-name="collapse" unicode="&#xe83c;" d="m500 517l-250-250 59-59 191 191 191-191 59 59-250 250z" horiz-adv-x="1000" />
<glyph glyph-name="utilities" unicode="&#xe83d;" d="m148 78l59-59 74 75-58 59-75-75z m310-163h84v123h-84v-123z m-291 498h-125v-84h125v84z m458 174v201h-250v-201c-75-43-125-124-125-216 0-138 112-250 250-250 138 0 250 112 250 250 0 92-50 173-125 216z m208-174v-84h125v84h-125z m-115-320l75-75 59 59-75 75-59-59z" horiz-adv-x="1000" />
<glyph glyph-name="balance_views" unicode="&#xe83e;" d="m875 725h-750c-46 0-83-37-83-83v-500c0-46 37-84 83-84h208v-83h334v83h208c46 0 83 38 83 84l0 500c0 46-37 83-83 83z m0-583h-750v500h750v-500z m-83 375h-459v-84h459v84z m0-167h-459v-83h459v83z m-500 167h-84v-84h84v84z m0-167h-84v-83h84v83z" horiz-adv-x="1000" />
<glyph glyph-name="cash" unicode="&#xe83f;" d="m208 683h750v-500h-750v500m375-125c69 0 125-56 125-125 0-69-56-125-125-125-69 0-125 56-125 125 0 69 56 125 125 125m-208 42c0-46-37-83-83-83v-167c46 0 83-37 83-83h417c0 46 37 83 83 83v167c-46 0-83 37-83 83h-417m-333-83h83v-417h667v-83h-750v500z" horiz-adv-x="1000" />
<glyph glyph-name="ach_payments" unicode="&#xe840;" d="m625 392v250l-125 125-125-125v-84h-250v-583h750v417h-250z m-333-334h-84v84h84v-84z m0 167h-84v83h84v-83z m0 167h-84v83h84v-83z m250-334h-84v84h84v-84z m0 167h-84v83h84v-83z m0 167h-84v83h84v-83z m0 166h-84v84h84v-84z m250-500h-84v84h84v-84z m0 167h-84v83h84v-83z" horiz-adv-x="1000" />
<glyph glyph-name="copy" unicode="&#xe841;" d="m667 808h-500c-46 0-84-37-84-83v-583h84v583h500v83z m125-166h-459c-45 0-83-38-83-84v-583c0-46 38-83 83-83h459c46 0 83 37 83 83v583c0 46-37 84-83 84z m0-667h-459v583h459v-583z" horiz-adv-x="1000" />
<glyph glyph-name="info" unicode="&#xe842;" d="m500 767c-230 0-417-187-417-417 0-230 187-417 417-417 230 0 417 187 417 417 0 230-187 417-417 417z m42-625h-84v250h84v-250z m0 333h-84v83h84v-83z" horiz-adv-x="1000" />
<glyph glyph-name="recommended" unicode="&#xe843;" d="m500 130l258-155-69 293 228 197-300 25-117 277-117-277-300-25 228-197-68-293 257 155z" horiz-adv-x="1000" />
<glyph glyph-name="report" unicode="&#xe844;" d="m417 17h166v666h-166v-666z m-250 0h166v333h-166v-333z m500 458v-458h166v458h-166z" horiz-adv-x="1000" />
<glyph glyph-name="international_wires" unicode="&#xe845;" d="m500 767c-230 0-417-187-417-417 0-230 187-417 417-417 230 0 417 187 417 417 0 230-187 417-417 417z m-42-747c-164 20-291 160-291 330 0 26 3 50 8 75l200-200v-42c0-45 38-83 83-83v-80z m288 105c-11 34-42 58-79 58h-42v125c0 23-19 42-42 42h-250v83h84c23 0 41 19 41 42v83h84c46 0 83 38 83 84v17c122-50 208-169 208-309 0-87-33-165-87-225z" horiz-adv-x="1000" />
<glyph glyph-name="credit_card" unicode="&#xe846;" d="m833 683h-666c-47 0-83-37-83-83l-1-500c0-46 37-83 84-83h666c47 0 84 37 84 83v500c0 46-37 83-84 83z m0-583h-666v250h666v-250z m0 417h-666v83h666v-83z" horiz-adv-x="1000" />
<glyph glyph-name="active" unicode="&#xe847;" d="m333 642v-584l459 292-459 292z" horiz-adv-x="1000" />
<glyph glyph-name="consumer" unicode="&#xe848;" d="m125 642v-584c0-45 37-83 83-83h584c46 0 83 38 83 83v584c0 46-37 83-83 83h-584c-46 0-83-37-83-83z m500-167c0-69-56-125-125-125s-125 56-125 125 56 125 125 125 125-56 125-125z m-375-333c0 83 167 129 250 129s250-46 250-129v-42h-500v42z" horiz-adv-x="1000" />
<glyph glyph-name="debit" unicode="&#xe849;" d="m229 413h84v-42h-84v42z m604 270h-666c-47 0-83-37-83-83l-1-500c0-46 37-83 84-83h666c47 0 84 37 84 83v500c0 46-37 83-84 83z m-458-312c0-36-27-63-62-63h-84v-83h-62v250h146c35 0 62-27 62-62v-42z m146-146h-63v250h63v-250z m312 0h-50l-106 146v-146h-52v250h52l104-146v146h52v-250z" horiz-adv-x="1000" />
<glyph glyph-name="ad" unicode="&#xe84a;" d="m792 558h-334v-250h334v250z m83 167h-750c-46 0-83-37-83-83v-584c0-45 37-82 83-82h750c46 0 83 37 83 82v584c0 46-37 83-83 83z m0-667h-750v585h750v-585z" horiz-adv-x="1000" />
<glyph glyph-name="date" unicode="&#xe84b;" d="m792 725h-42v83h-83v-83h-334v83h-83v-83h-42c-46 0-83-37-83-83l0-584c0-45 37-83 83-83h584c46 0 83 38 83 83v584c0 46-37 83-83 83z m0-667h-584v459h584v-459z m-500 375h208v-208h-208v208z" horiz-adv-x="1000" />
<glyph glyph-name="list" unicode="&#xe84c;" d="m125 308h83v84h-83v-84z m0-166h83v83h-83v-83z m0 333h83v83h-83v-83z m167-167h583v84h-583v-84z m0-166h583v83h-583v-83z m0 416v-83h583v83h-583z" horiz-adv-x="1000" />
<glyph glyph-name="retirement" unicode="&#xe84d;" d="m415 554c-9 0-13 7-9 15l77 147c4 12 26 12 30 0l77-147c5-8 0-15-8-15h-167z m-133-252l-61-111c-4-8 0-16 9-16h528c8 0 13 8 8 16l-60 111c0 4-4 8-8 8h-408c-4 0-8-4-8-8z m519-192c0 4-5 4-9 4h-588c-4 0-8-4-8-4l-60-111c-5-12 0-24 12-24h700l0 0c13 0 21 12 17 24l-64 111z m-429 392l-60-111c-5-7 0-15 8-15h348c8 0 13 7 8 15l-60 111c0 4-4 4-8 4h-228c-4 0-4 0-8-4z" horiz-adv-x="1000" />
<glyph glyph-name="satisfied" unicode="&#xe84e;" d="m500 767c-230 0-417-187-417-417 0-230 187-417 417-417 230 0 417 187 417 417 0 230-187 417-417 417z m0-750c-184 0-333 149-333 333s149 333 333 333 333-149 333-333-149-333-333-333z m146 375c34 0 62 28 62 62s-28 63-62 63-63-28-63-63 28-62 63-62z m-292 0c35 0 63 28 63 62s-28 63-63 63-62-28-62-63 28-62 62-62z m146-271c97 0 180 61 213 146h-426c33-85 116-146 213-146z" horiz-adv-x="1000" />
<glyph glyph-name="lock" unicode="&#xe84f;" d="m750 517h-42v83c0 115-93 208-208 208s-208-93-208-208v-83h-42c-46 0-83-38-83-84v-416c0-46 37-84 83-84h500c46 0 83 38 83 84v416c0 46-37 84-83 84z m-250-375c-46 0-83 37-83 83s37 83 83 83c46 0 83-37 83-83s-37-83-83-83z m129 375h-258v83c0 71 58 129 129 129s129-58 129-129v-83z" horiz-adv-x="1000" />
<glyph glyph-name="delete" unicode="&#xe850;" d="m250 58c0-45 38-83 83-83h334c46 0 83 38 83 83v500h-500v-500z m542 625h-146l-42 42h-208l-42-42h-146v-83h584v83z" horiz-adv-x="1000" />
<glyph glyph-name="add" unicode="&#xe851;" d="m500 745c-217 0-395-178-395-395 0-217 178-395 395-395 217 0 395 178 395 395 0 217-178 395-395 395z m197-434h-157v-158h-79v158h-158v79h158v157h79v-157h157v-79z" horiz-adv-x="1000" />
<glyph glyph-name="insurance" unicode="&#xe852;" d="m500 767c-207 0-375-168-375-375h333v-334c0-23-18-41-41-41s-42 18-42 41h-83c0-69 56-125 125-125s125 56 125 125v334h333c0 207-168 375-375 375z" horiz-adv-x="1000" />
<glyph glyph-name="link" unicode="&#xe853;" d="m163 350c0 71 57 129 129 129h166v79h-166c-115 0-209-93-209-208s94-208 209-208h166v79h-166c-72 0-129 58-129 129z m170-42h334v84h-334v-84z m375 250h-166v-79h166c72 0 130-58 130-129s-58-129-130-129h-166v-79h166c115 0 209 93 209 208s-94 208-209 208z" horiz-adv-x="1000" />
<glyph glyph-name="address_change" unicode="&#xe854;" d="m833 517h-125v166h-583c-46 0-83-37-83-83v-458h83c0-69 56-125 125-125s125 56 125 125h250c0-69 56-125 125-125s125 56 125 125h83v208l-125 167z m-583-438c-35 0-62 28-62 63s27 62 62 62 63-28 63-62-28-63-63-63z m563 375l81-104h-186v104h105z m-63-375c-35 0-62 28-62 63s27 62 62 62 63-28 63-62-28-63-63-63z" horiz-adv-x="1000" />
<glyph glyph-name="desktop" unicode="&#xe855;" d="m833 100c46 0 83 38 83 83l1 459c0 46-38 83-84 83h-666c-46 0-84-37-84-83v-459c0-45 38-83 84-83h-167c0-46 38-83 83-83h834c46 0 83 37 83 83h-167z m-666 542h666v-459h-666v459z m333-584c-23 0-42 19-42 42s19 42 42 42 42-19 42-42-19-42-42-42z" horiz-adv-x="1000" />
<glyph glyph-name="micropayments" unicode="&#xe856;" d="m903-48l0 0c-32-32-78-32-105 0l-206 223 87 87 223-206c28-31 28-77 1-104z m-265 346l18-18-86-87-19 19c-50-32-105-51-168-51-82 0-160 32-215 92-59 59-91 132-91 214 0 82 32 159 91 214 60 60 133 91 215 91s159-31 214-91c59-59 91-132 91-214 0-64-18-119-50-169z m-78 342c-95 96-255 96-351 0-95-96-95-255 0-351 96-96 256-96 351 0 96 96 96 255 0 351z m-95-269c13 18 23 32 23 55 0 14-5 27-14 41-9 14-18 18-32 27-14 5-32 9-55 14-13 5-23 5-27 9-5 5-5 9-5 14 0 13 14 23 37 23 23 0 36-10 41-28l50 18c-14 37-41 55-78 60v32h-13-14v-32c-23-5-41-9-55-28-13-13-18-32-18-50 0-18 5-32 18-45 10-14 37-23 73-32 19-5 28-9 37-9 4-5 9-10 9-19 0-9-5-13-9-18-5-4-18-9-32-9-27 0-46 14-50 36l-55-13c9-41 41-64 87-69v-36h13 14v36c18-4 41 5 55 23z" horiz-adv-x="1000" />
<glyph glyph-name="save_behavior" unicode="&#xe857;" d="m951 376c-5 0-10 0-10-5-5-11-16-21-26-21l0 0c5 5 5 10 10 21 6 25 6 46-5 61-5 5-10 10-20 10s-16-5-21-10c-10-15-10-36-5-56 5-6 5-16 10-21-5 0-15 5-20 5 0 11 0 21 0 31 0 179-169 266-384 266-62 0-118-10-164-25-15 5-41 15-67 20-51 5-92-5-92-5l46-77c-41-31-71-71-87-118l-77-5c0 0-5-77 26-118 5-10 26-15 51-20 26-77 92-143 179-179v-62c0-15 11-25 26-25h97c16 0 26 10 26 25v41h148v-41c0-15 11-25 26-25h92c16 0 26 15 31 25 15 36 82 164 97 195 16 26 21 51 26 82 5-5 15-5 20-5 6 0 11 0 11 0s5 0 5 5c5 0 10-5 15-5 10 0 31 0 46 31-5-5-5 0-10 5z m-678 79c-12-12-36-12-48 0l0 0c-12 12-12 36 0 48 12 11 36 11 48 0 11-18 11-36 0-48z m336 99h-212c-10 0-19 13-19 26l0 0c0 13 9 26 19 26h212c10 0 19-13 19-26 0-13-4-26-19-26z m291-178c0-5-5-11-5-16 0 0 0 6-5 6 0 5-6 5-6 10-5 20-5 36 0 41l6 5c0 0 5 0 5-5 10-5 10-21 5-41z" horiz-adv-x="1000" />
<glyph glyph-name="save" unicode="&#xe858;" d="m708 725h-500c-46 0-83-37-83-83v-584c0-45 37-83 83-83h584c46 0 83 38 83 83v500l-167 167z m-208-667c-69 0-125 56-125 125s56 125 125 125 125-55 125-125-56-125-125-125z m125 417h-417v167h417v-167z" horiz-adv-x="1000" />
<glyph glyph-name="more" unicode="&#xe859;" d="m500 517c46 0 83 37 83 83s-37 83-83 83c-46 0-83-37-83-83s37-83 83-83z m0-84c-46 0-83-37-83-83 0-46 37-83 83-83 46 0 83 37 83 83 0 46-37 83-83 83z m0-250c-46 0-83-37-83-83s37-83 83-83c46 0 83 37 83 83s-37 83-83 83z" horiz-adv-x="1000" />
<glyph glyph-name="destination_page" unicode="&#xe85a;" d="m324 568l-64 54-226-272 226-272 64 54-181 218 181 218z m-32-260h83v84h-83v-84z m416 84h-83v-84h83v84z m-250-84h84v84h-84v-84z m282 314l-64-54 182-218-182-218 64-54 226 272-226 272z" horiz-adv-x="1000" />
<glyph glyph-name="archived" unicode="&#xe85b;" d="m417 683h-250c-46 0-83-37-83-83l-1-500c0-46 38-83 84-83h666c46 0 84 37 84 83v417c0 46-38 83-84 83h-333l-83 83z" horiz-adv-x="1000" />
<glyph glyph-name="non_traditional" unicode="&#xe85c;" d="m792 725c46 0 83-37 83-83v-584c0-46-37-83-83-83h-584c-46 0-83 38-83 83v584c0 46 37 83 83 83h584m-334-583h84v136l118-68 41 72-118 68 118 68-41 72-118-68v136h-84v-136l-118 68-41-72 118-68-118-68 41-72 118 68v-136z" horiz-adv-x="1000" />
<glyph glyph-name="p2p" unicode="&#xe85d;" d="m229-67v313h-62v229c0 46 37 83 83 83h125c46 0 83-37 83-83v-229h-62v-313h-167z m521 0v250h125l-106 318c-11 34-43 57-79 57h-5c-36 0-68-23-79-57l-106-318h125v-250h125z m-437 667c46 0 83 37 83 83s-37 84-83 84-84-37-84-84 37-83 84-83z m375 0c46 0 83 37 83 83s-37 84-83 84-84-37-84-84 37-83 84-83z" horiz-adv-x="1000" />
<glyph glyph-name="audience_add" unicode="&#xe85e;" d="m333 433h-125v125h-83v-125h-125v-83h125v-125h83v125h125v83z m417-41c69 0 125 56 125 125s-56 125-125 125c-13 0-26-2-38-6 24-34 38-75 38-119s-15-85-38-119c12-4 25-6 38-6z m-208 0c69 0 124 56 124 125s-55 125-124 125-125-56-125-125 56-125 125-125z m276-90c34-31 57-69 57-119v-83h125v83c0 65-99 104-182 119z m-276 6c-84 0-250-41-250-125v-83h500v83c0 84-167 125-250 125z" horiz-adv-x="1000" />
<glyph glyph-name="domestic_wires" unicode="&#xe85f;" d="m493 106v225h-150v-225h-185v300h-110l375 335 374-335h-110v-66c-79-36-135-115-135-208 0-9 1-17 2-26l-61 0z m287 192c92 0 166-74 166-166 0-91-74-166-166-166-91 0-165 75-165 166 0 92 74 166 165 166z m11-202c0-9-3-14-17-14-11 0-22 4-36 15l-4 3-24-36 4-3c13-12 32-19 46-21v-28h38v29c27 8 43 29 43 57 0 34-29 48-49 58-13 6-24 11-24 19 0 7 2 12 15 12 9 0 17-3 27-12l3-4 28 31-4 3c-12 13-25 21-39 24v28h-38v-29c-26-7-41-27-41-55 0-31 26-45 46-55 14-7 26-13 26-22z" horiz-adv-x="1000" />
<glyph glyph-name="mortgage" unicode="&#xe860;" d="m135 335h730v-276h75v-60h-880v60h75v276l0 0z m750 272h-145v62h7v32h-7-89-6v-32h6v-97h-15v35h-521l-30-185v-40h830v40l-30 185 0 0z m-622-548h121v218h-121v-218l0 0z m417 218h-121v-143h121v143l0 0z" horiz-adv-x="1000" />
<glyph glyph-name="search" unicode="&#xe861;" d="m646 267h-33l-12 11c41 47 66 109 66 176 0 150-122 271-271 271s-271-121-271-271 121-271 271-271c67 0 129 25 176 66l11-12v-33l209-208 62 62-208 209z m-250 0c-104 0-188 83-188 187s84 188 188 188 187-84 187-188-83-187-187-187z" horiz-adv-x="1000" />
<glyph glyph-name="settings" unicode="&#xe862;" d="m810 309c1 14 3 27 3 41s-2 28-3 41l88 69c7 6 10 17 5 26l-84 144c-5 10-16 13-25 10l-104-42c-22 17-45 30-70 41l-16 110c-1 10-10 18-21 18h-166c-11 0-19-8-21-18l-16-110c-25-11-48-25-70-41l-104 42c-9 3-20 0-25-10l-83-144c-6-9-3-20 5-26l87-69c-1-13-2-27-2-41s1-27 2-41l-87-69c-8-6-10-17-5-26l83-144c5-10 16-13 25-10l104 42c22-17 45-30 70-41l16-110c2-10 10-18 21-18h166c11 0 20 8 21 18l16 110c25 11 48 25 70 41l104-42c9-3 20 0 25 10l84 144c4 9 2 20-5 26l-88 69z m-310-105c-80 0-146 66-146 146 0 80 66 146 146 146 80 0 146-66 146-146 0-80-66-146-146-146z" horiz-adv-x="1000" />
<glyph glyph-name="mrdc" unicode="&#xe863;" d="m500 483c74 0 133-59 133-133 0-74-59-133-133-133-74 0-133 59-133 133 0 74 59 133 133 133z m-125 284l-76-84h-132c-46 0-84-37-84-83v-500c0-46 38-83 84-83h666c46 0 84 37 84 83v500c0 46-38 83-84 83h-132l-76 84h-250z m125-625c-115 0-208 93-208 208s93 208 208 208 208-93 208-208-93-208-208-208z" horiz-adv-x="1000" />
<glyph glyph-name="download" unicode="&#xe864;" d="m792 475h-167v250h-250v-250h-167l292-292 292 292z m-584-375v-83h584v83h-584z" horiz-adv-x="1000" />
<glyph glyph-name="audience_empty" unicode="&#xe865;" d="m688 308c-50 0-128-14-188-41-60 28-137 41-187 41-91 0-271-45-271-135v-115h916v115c0 90-180 135-270 135z m-167-187h-417v52c0 22 107 73 209 73s208-51 208-73v-52z m375 0h-313v52c0 19-8 36-21 51 36 12 81 22 126 22 101 0 208-51 208-73v-52z m-583 229c80 0 145 65 145 146s-65 146-145 146-146-66-146-146 65-146 146-146z m0 229c45 0 83-37 83-83s-38-83-83-83-84 37-84 83 38 83 84 83z m375-229c80 0 145 65 145 146s-65 146-145 146-146-66-146-146 65-146 146-146z m0 229c45 0 83-37 83-83s-38-83-83-83-84 37-84 83 38 83 84 83z" horiz-adv-x="1000" />
<glyph glyph-name="safe_deposit" unicode="&#xe866;" d="m500 808l-375-166v-250c0-232 160-448 375-500 215 52 375 268 375 500v250l-375 166z" horiz-adv-x="1000" />
<glyph glyph-name="themes" unicode="&#xe867;" d="m500 725c-207 0-375-168-375-375 0-207 168-375 375-375 35 0 63 28 63 63 0 16-7 30-17 42-9 10-16 25-16 41 0 34 28 62 63 62h74c115 0 208 94 208 209 0 184-168 333-375 333z m-229-375c-35 0-63 28-63 63s28 62 63 62 62-28 62-62-28-63-62-63z m125 167c-35 0-63 28-63 62s28 63 63 63 62-28 62-63-28-62-62-62z m208 0c-34 0-62 28-62 62s28 63 62 63 63-28 63-63-28-62-63-62z m125-167c-34 0-62 28-62 63s28 62 62 62 63-28 63-62-28-63-63-63z" horiz-adv-x="1000" />
<glyph glyph-name="audience_remove" unicode="&#xe868;" d="m333 433h-333v-83h333v83z m417-41c71 0 125 54 125 125s-54 125-125 125c-12 0-25 0-37-4 25-34 37-75 37-121s-12-84-37-121c12-4 25-4 37-4z m-208 0c71 0 125 54 125 125s-54 125-125 125-125-54-125-125 54-125 125-125z m275-92c33-29 58-71 58-117v-83h125v83c0 63-100 105-183 117z m-275 8c-84 0-250-41-250-125v-83h500v83c0 84-167 125-250 125z" horiz-adv-x="1000" />
<glyph glyph-name="drafted" unicode="&#xe869;" d="m916 517c0 30-15 56-39 71l-377 220-377-220c-24-15-40-41-40-71v-417c0-46 38-83 84-83h666c46 0 84 37 84 83l-1 417z m-416-209l-344 215 344 202 344-202-344-215z" horiz-adv-x="1000" />
<glyph glyph-name="multi_success" unicode="&#xe86a;" d="m750 558l-59 59-264-264 59-59 264 264z m177 59l-441-441-174 174-59-59 233-233 500 500-59 59z m-910-326l233-233 59 59-233 233-59-59z" horiz-adv-x="1000" />
<glyph glyph-name="stop" unicode="&#xe86b;" d="m655 725h-310l-220-220v-310l220-220h310l220 220v310l-220 220z m-155-596c-30 0-54 24-54 54s24 55 54 55c30 0 54-25 54-55s-24-54-54-54z m42 179h-84v250h84v-250z" horiz-adv-x="1000" />
<glyph glyph-name="student" unicode="&#xe86c;" d="m208 301v-167l292-159 292 159v167l-292-159-292 159z m292 424l-458-250 458-250 375 205v-288h83v333l-458 250z" horiz-adv-x="1000" />
<glyph glyph-name="no" unicode="&#xe86d;" d="m500 767c-230 0-417-187-417-417 0-230 187-417 417-417 230 0 417 187 417 417 0 230-187 417-417 417z m0-750c-184 0-333 149-333 333 0 77 26 148 70 204l467-467c-56-44-127-70-204-70z m263 129l-467 467c56 44 127 70 204 70 184 0 333-149 333-333 0-77-26-148-70-204z" horiz-adv-x="1000" />
<glyph glyph-name="edit" unicode="&#xe86e;" d="m125 131v-156h156l461 461-156 156-461-461z m738 426c16 16 16 42 0 58l-98 98c-16 16-42 16-58 0l-77-76 157-157 76 77z" horiz-adv-x="1000" />
<glyph glyph-name="audiences" unicode="&#xe86f;" d="m667 392c69 0 124 56 124 125s-55 125-124 125-125-56-125-125 56-125 125-125z m-334 0c70 0 125 56 125 125s-55 125-125 125-125-56-125-125 56-125 125-125z m0-84c-97 0-291-48-291-145v-105h583v105c0 97-195 145-292 145z m334 0c-12 0-26 0-41-2 49-35 82-82 82-143v-105h250v105c0 97-194 145-291 145z" horiz-adv-x="1000" />
<glyph glyph-name="unlink" unicode="&#xe870;" d="m83 630l54 53 696-696-53-54-166 167h-72v72l-137 136h-72v72l-104 105c-41-31-66-80-66-135 0-94 76-171 170-171h125v-79h-125c-138 0-250 112-250 250 0 77 35 146 90 191l-90 89m584-30c138 0 250-112 250-250 0-92-50-173-125-216l-59 59c62 26 105 86 105 157 0 95-77 171-171 171h-125v79h125m-334 0h125v-79h-53l-79 79h7m334-208v-84h-49l-84 84h133z" horiz-adv-x="1000" />
</font>
</defs>
</svg>
