<?xml version="1.0" encoding="utf-8"?>
<!-- Generator: Adobe Illustrator 19.0.0, SVG Export Plug-In . SVG Version: 6.00 Build 0)  -->
<svg version="1.1" id="Layer_3" xmlns="http://www.w3.org/2000/svg" xmlns:xlink="http://www.w3.org/1999/xlink" x="0px" y="0px"
	 viewBox="-293 385 24 24" style="enable-background:new -293 385 24 24;" xml:space="preserve">
<style type="text/css">
	.st0{fill:#9E9E9E;}
</style>
<path class="st0" d="M-274.1,402c0.5,0.5,0.5,1.1,0.2,1.5l-0.6,0.6c-0.4,0.4-1,0.3-1.5-0.2l-5-5l-5,5c-0.5,0.5-1.1,0.5-1.5,0.2
	l-0.6-0.6c-0.4-0.4-0.3-1,0.2-1.5l5-5l-5-5c-0.5-0.5-0.5-1.1-0.2-1.5l0.6-0.6c0.4-0.4,1-0.3,1.5,0.2l5,5l5-5
	c0.5-0.5,1.1-0.5,1.5-0.2l0.6,0.6c0.4,0.4,0.3,1-0.2,1.5l-5,5L-274.1,402z"/>
</svg>
